<svg width="262" height="28" viewBox="0 0 262 28" fill="none" xmlns="http://www.w3.org/2000/svg">
<path fill-rule="evenodd" clip-rule="evenodd" d="M3 4C2.44772 4 2 4.44772 2 5V23C2 23.5523 2.44772 24 3 24H21C21.5523 24 22 23.5523 22 23V5C22 4.44772 21.5523 4 21 4H3ZM17.2299 12.8934C16.6125 12.4971 15.8913 12.2996 15.0673 12.2996C14.2444 12.2996 13.5231 12.4971 12.9056 12.8934C12.2881 13.2905 11.8114 13.8536 11.4762 14.5839C11.1411 15.3149 10.9735 16.1695 10.9735 17.1493C10.9735 18.1383 11.1411 18.9957 11.4762 19.7221C11.8114 20.4478 12.2881 21.0091 12.9056 21.4052C13.5231 21.8014 14.2444 22 15.0673 22C15.8913 22 16.6125 21.8014 17.2299 21.4052C17.8475 21.0091 18.3242 20.4478 18.6594 19.7221C18.9945 18.9957 19.1612 18.1383 19.1612 17.1493C19.1612 16.1695 18.9945 15.3149 18.6594 14.5839C18.3242 13.8536 17.8475 13.2905 17.2299 12.8934ZM9.47922 21.7994V12.3263L4.92658 13.4351V15.2656L7.20991 14.6774V21.7994H9.47922ZM13.7606 14.9513C14.0767 14.4298 14.5117 14.1701 15.0673 14.1701C15.6239 14.1701 16.0589 14.4298 16.3751 14.9513C16.6913 15.4718 16.8489 16.2058 16.8489 17.1493C16.8489 18.0938 16.6913 18.8268 16.3751 19.3473C16.0589 19.8688 15.6239 20.1296 15.0673 20.1296C14.5117 20.1296 14.0767 19.8688 13.7606 19.3473C13.4442 18.8268 13.2868 18.0938 13.2868 17.1493C13.2868 16.2058 13.4442 15.4718 13.7606 14.9513ZM13.0737 6.19939C12.7285 6.06677 12.3485 6 11.9344 6C11.5194 6 11.1405 6.06677 10.7952 6.19939C10.4521 6.33122 10.1518 6.51771 9.89848 6.75622C9.64404 6.99367 9.44963 7.27379 9.312 7.59396C9.17437 7.91504 9.10556 8.26299 9.10556 8.63872C9.10556 9.01446 9.17437 9.36241 9.312 9.68349C9.44963 10.0035 9.64404 10.2829 9.89848 10.5214C10.1518 10.7597 10.4521 10.9453 10.7952 11.0779C11.1405 11.2098 11.5194 11.2774 11.9344 11.2774C12.3485 11.2774 12.7285 11.2098 13.0737 11.0779C13.4168 10.9453 13.7161 10.7597 13.9704 10.5214C14.2239 10.2829 14.4194 10.0035 14.557 9.68349C14.6947 9.36241 14.7635 9.01446 14.7635 8.63872C14.7635 8.26299 14.6947 7.91504 14.557 7.59396C14.4194 7.27379 14.2239 6.99367 13.9704 6.75622C13.7161 6.51771 13.4168 6.33122 13.0737 6.19939ZM8.75526 7.30869V6.12288H4V7.30869H5.63894V11.1546H7.11632V7.30869H8.75526ZM18.9904 6.3469C18.6683 6.19847 18.2893 6.12327 17.8484 6.12327H15.5101V11.1539H16.9855V9.70838H17.8484C18.2893 9.70838 18.6683 9.63318 18.9904 9.48384C19.3117 9.33541 19.5601 9.12483 19.7366 8.85484C19.9132 8.58578 20 8.26931 20 7.90845C20 7.55682 19.9132 7.24587 19.7366 6.97602C19.5601 6.70683 19.3117 6.49624 18.9904 6.3469ZM11.2392 7.39166C11.4387 7.27379 11.6701 7.21545 11.9344 7.21545C12.1988 7.21545 12.4302 7.27379 12.6297 7.39166C12.8292 7.50954 12.9849 7.67653 13.0955 7.89001C13.2072 8.10521 13.2632 8.35386 13.2632 8.63872C13.2632 8.92267 13.2072 9.17224 13.0955 9.38651C12.9849 9.60092 12.8292 9.76791 12.6297 9.88565C12.4302 10.0035 12.1988 10.062 11.9344 10.062C11.6701 10.062 11.4387 10.0035 11.2392 9.88565C11.0397 9.76791 10.8841 9.60092 10.7724 9.38651C10.6617 9.17224 10.6057 8.92267 10.6057 8.63872C10.6057 8.35386 10.6617 8.10521 10.7724 7.89001C10.8841 7.67653 11.0397 7.50954 11.2392 7.39166ZM16.9855 7.27195H17.6149C17.9252 7.27195 18.1515 7.32845 18.2913 7.43895C18.4309 7.54931 18.5017 7.70616 18.5017 7.90845C18.5017 8.11535 18.4309 8.27589 18.2913 8.38902C18.1515 8.50228 17.9252 8.55878 17.6149 8.55878H16.9855V7.27195Z" fill="#E50914"/>
<path d="M34.298 22H36.916L37.554 18.414H40.458L39.82 22H42.46L43.098 18.414H45.804V15.994H43.516L44.11 12.76H45.98V10.34H44.528L45.166 6.754H42.548L41.91 10.34H39.006L39.644 6.754H37.004L36.366 10.34H33.66V12.76H35.948L35.354 15.994H33.484V18.414H34.936L34.298 22ZM37.994 15.994L38.566 12.76H41.47L40.898 15.994H37.994ZM52.4327 22H55.9087V6.402L48.9347 8.228V11.242L52.4327 10.274V22ZM67.7889 9.416C68.3389 9.416 68.8229 9.218 69.2189 8.844C69.5929 8.47 69.7909 7.986 69.7909 7.436C69.7909 6.886 69.5929 6.402 69.2189 6.028C68.8229 5.654 68.3389 5.456 67.7889 5.456C67.2389 5.456 66.7769 5.654 66.4029 6.028C66.0069 6.402 65.8089 6.886 65.8089 7.436C65.8089 7.986 66.0069 8.47 66.4029 8.844C66.7769 9.218 67.2389 9.416 67.7889 9.416ZM66.1169 22H69.4609V10.538H66.1169V22ZM75.4765 15.312C75.4765 14.674 75.6525 14.146 76.0265 13.75C76.4005 13.376 76.8625 13.178 77.4565 13.178C78.0945 13.178 78.5785 13.376 78.8865 13.772C79.1945 14.168 79.3485 14.696 79.3485 15.356V22H82.6925V14.916C82.6925 13.486 82.3405 12.342 81.6145 11.484C80.8885 10.626 79.9205 10.208 78.7105 10.208C77.2805 10.208 76.1585 10.736 75.3225 11.814V10.538H72.1325V22H75.4765V15.312ZM98.0134 22V9.79H102.875V6.688H89.5654V9.79H94.4274V22H98.0134ZM119.15 6.688H115.432L111.626 17.776L107.798 6.688H103.926L109.646 22H113.408L119.15 6.688ZM131.438 22.352C132.648 22.352 133.704 22.154 134.628 21.78C135.53 21.406 136.256 20.834 136.784 20.086C137.29 19.338 137.554 18.436 137.554 17.358C137.554 14.872 136.058 13.354 133.066 12.848L131.46 12.584C130.404 12.386 129.7 12.166 129.348 11.924C128.996 11.682 128.82 11.33 128.82 10.912C128.82 10.45 129.04 10.076 129.48 9.79C129.898 9.504 130.492 9.372 131.262 9.372C131.988 9.372 132.582 9.504 133.022 9.768C133.44 10.054 133.726 10.428 133.858 10.934H137.4C137.158 9.46 136.498 8.316 135.398 7.524C134.298 6.732 132.912 6.336 131.218 6.336C130.096 6.336 129.084 6.534 128.182 6.93C127.28 7.326 126.554 7.898 126.026 8.624C125.498 9.35 125.234 10.23 125.234 11.242C125.234 12.54 125.586 13.53 126.312 14.212C127.016 14.894 128.072 15.378 129.48 15.62L131.108 15.906C131.922 16.038 132.516 16.192 132.934 16.346C133.33 16.522 133.594 16.72 133.748 16.94C133.88 17.16 133.946 17.424 133.946 17.732C133.946 18.238 133.704 18.612 133.242 18.898C132.78 19.184 132.164 19.316 131.394 19.316C130.58 19.316 129.898 19.14 129.348 18.81C128.798 18.48 128.446 18.04 128.292 17.512H124.75C125.08 19.03 125.806 20.218 126.928 21.076C128.05 21.934 129.568 22.352 131.438 22.352ZM139.679 22H143.023V15.312C143.023 14.674 143.199 14.146 143.573 13.75C143.947 13.376 144.409 13.178 145.003 13.178C145.641 13.178 146.125 13.376 146.433 13.772C146.741 14.168 146.895 14.696 146.895 15.356V22H150.239V14.916C150.239 13.486 149.887 12.342 149.161 11.484C148.435 10.626 147.467 10.208 146.257 10.208C144.915 10.208 143.837 10.692 143.023 11.682V6.05H139.679V22ZM158.021 22.33C159.165 22.33 160.177 22.066 161.079 21.56C161.959 21.054 162.641 20.328 163.147 19.404C163.653 18.502 163.895 17.446 163.895 16.258C163.895 15.07 163.653 14.014 163.147 13.112C162.641 12.21 161.959 11.484 161.079 10.978C160.177 10.472 159.165 10.208 158.021 10.208C156.877 10.208 155.865 10.472 154.985 10.978C154.105 11.484 153.423 12.21 152.917 13.112C152.411 14.014 152.169 15.07 152.169 16.258C152.169 17.446 152.411 18.502 152.917 19.404C153.423 20.328 154.105 21.054 154.985 21.56C155.865 22.066 156.877 22.33 158.021 22.33ZM158.021 19.404C157.295 19.404 156.701 19.118 156.239 18.546C155.777 17.996 155.557 17.226 155.557 16.258C155.557 15.29 155.777 14.52 156.239 13.97C156.701 13.42 157.295 13.134 158.021 13.134C158.747 13.134 159.363 13.42 159.825 13.97C160.287 14.52 160.507 15.29 160.507 16.258C160.507 17.226 160.287 17.996 159.825 18.546C159.363 19.118 158.747 19.404 158.021 19.404ZM168.228 22H171.088L173.09 14.806L175.136 22H177.996L181.626 10.538H178.326L176.478 17.27L174.564 10.56H171.66L169.834 17.27L167.986 10.538H164.598L168.228 22ZM187.415 22.33C188.317 22.33 189.131 22.176 189.857 21.868C190.583 21.582 191.155 21.142 191.573 20.57C191.991 20.02 192.189 19.338 192.189 18.568C192.189 17.666 191.903 16.874 191.353 16.214C190.803 15.554 189.945 15.158 188.823 15.004L187.239 14.784C186.689 14.718 186.315 14.608 186.073 14.454C185.831 14.322 185.721 14.124 185.721 13.86C185.721 13.574 185.853 13.31 186.139 13.112C186.403 12.914 186.755 12.826 187.217 12.826C187.679 12.826 188.053 12.914 188.339 13.09C188.625 13.288 188.823 13.508 188.889 13.794H192.013C191.947 13.156 191.705 12.584 191.309 12.034C190.913 11.484 190.363 11.044 189.681 10.714C188.977 10.384 188.141 10.208 187.173 10.208C186.293 10.208 185.501 10.362 184.797 10.67C184.071 11 183.521 11.44 183.103 12.012C182.685 12.606 182.465 13.288 182.465 14.058C182.465 14.982 182.729 15.73 183.257 16.324C183.785 16.918 184.599 17.292 185.721 17.446L187.327 17.666C187.921 17.754 188.339 17.886 188.581 18.04C188.801 18.216 188.911 18.436 188.911 18.722C188.911 19.008 188.779 19.228 188.493 19.426C188.207 19.624 187.833 19.712 187.327 19.712C186.821 19.712 186.381 19.602 186.051 19.382C185.721 19.162 185.523 18.92 185.457 18.634H182.289C182.399 19.756 182.927 20.658 183.851 21.318C184.753 22 185.941 22.33 187.415 22.33ZM206.939 22V9.79H211.801V6.688H198.491V9.79H203.353V22H206.939ZM217.275 22.33C218.419 22.33 219.431 22.066 220.333 21.56C221.213 21.054 221.895 20.328 222.401 19.404C222.907 18.502 223.149 17.446 223.149 16.258C223.149 15.07 222.907 14.014 222.401 13.112C221.895 12.21 221.213 11.484 220.333 10.978C219.431 10.472 218.419 10.208 217.275 10.208C216.131 10.208 215.119 10.472 214.239 10.978C213.359 11.484 212.677 12.21 212.171 13.112C211.665 14.014 211.423 15.07 211.423 16.258C211.423 17.446 211.665 18.502 212.171 19.404C212.677 20.328 213.359 21.054 214.239 21.56C215.119 22.066 216.131 22.33 217.275 22.33ZM217.275 19.404C216.549 19.404 215.955 19.118 215.493 18.546C215.031 17.996 214.811 17.226 214.811 16.258C214.811 15.29 215.031 14.52 215.493 13.97C215.955 13.42 216.549 13.134 217.275 13.134C218.001 13.134 218.617 13.42 219.079 13.97C219.541 14.52 219.761 15.29 219.761 16.258C219.761 17.226 219.541 17.996 219.079 18.546C218.617 19.118 218.001 19.404 217.275 19.404ZM229.588 22.33C230.314 22.33 230.952 22.198 231.502 21.89C232.052 21.604 232.536 21.208 232.91 20.68V22H236.1V6.05H232.778V11.726C232.404 11.242 231.942 10.868 231.414 10.604C230.864 10.34 230.27 10.208 229.588 10.208C228.598 10.208 227.74 10.472 226.992 10.978C226.222 11.484 225.628 12.21 225.21 13.112C224.77 14.014 224.55 15.07 224.55 16.258C224.55 17.446 224.77 18.502 225.21 19.404C225.628 20.328 226.222 21.054 226.992 21.56C227.74 22.066 228.598 22.33 229.588 22.33ZM230.424 19.404C229.698 19.404 229.104 19.118 228.642 18.568C228.18 18.018 227.938 17.248 227.938 16.28C227.938 15.29 228.18 14.52 228.642 13.97C229.104 13.42 229.698 13.134 230.424 13.134C231.15 13.134 231.766 13.42 232.228 13.97C232.69 14.542 232.932 15.312 232.932 16.28C232.932 17.226 232.69 17.996 232.228 18.546C231.766 19.118 231.15 19.404 230.424 19.404ZM242 22.33C242.616 22.33 243.232 22.198 243.826 21.934C244.42 21.692 244.882 21.274 245.234 20.702V22H248.27V14.872C248.27 13.266 247.83 12.078 246.95 11.33C246.048 10.582 244.838 10.208 243.32 10.208C241.89 10.208 240.768 10.538 239.91 11.22C239.052 11.902 238.546 12.738 238.348 13.728H241.494C241.56 13.486 241.758 13.288 242.044 13.09C242.33 12.914 242.726 12.826 243.21 12.826C243.76 12.826 244.2 12.958 244.53 13.222C244.86 13.508 245.014 13.926 245.014 14.498V14.894H242.924C241.406 14.894 240.196 15.224 239.338 15.884C238.48 16.544 238.04 17.468 238.04 18.678C238.04 19.778 238.392 20.658 239.118 21.318C239.844 22 240.79 22.33 242 22.33ZM242.88 19.734C242.418 19.734 242.022 19.624 241.714 19.404C241.406 19.184 241.252 18.876 241.252 18.458C241.252 18.04 241.406 17.71 241.736 17.468C242.044 17.248 242.484 17.138 243.078 17.138H245.014V17.798C245.014 18.216 244.904 18.568 244.706 18.854C244.486 19.14 244.222 19.36 243.892 19.514C243.562 19.668 243.21 19.734 242.88 19.734ZM251.712 26.51H255.276L261.458 10.538H257.894L255.408 18.062L252.9 10.538H249.094L253.582 22L251.712 26.51Z" fill="white"/>
</svg>
