<svg width="137" height="36" viewBox="0 0 137 36" fill="none" xmlns="http://www.w3.org/2000/svg">
<path d="M18.8379 33.6795C16.777 34.0314 14.6799 34.1369 12.5105 34.4179L5.89354 15.5743V35.2266C3.83265 35.4375 1.95252 35.7188 0 36V0H5.49606L13.0166 20.4261V0H18.8379V33.6795ZM30.2275 13.1836C32.4694 13.1836 35.9043 13.0781 37.9652 13.0781V18.703C35.3979 18.703 32.397 18.703 30.2275 18.8085V27.1758C33.6264 26.9649 37.0252 26.6834 40.4599 26.5779V31.9917L24.4422 33.2224V0H40.4599V5.62501H30.2275V13.1836ZM61.9735 5.62514H55.9715V31.5001C54.0189 31.5001 52.0664 31.5001 50.1866 31.5702V5.62514H44.1845V0H61.9738L61.9735 5.62514ZM71.3743 12.797H79.2929V18.4219H71.3743V31.1837H65.6973V0H81.86V5.62501H71.3743V12.797ZM91.2609 26.2617C94.5513 26.3318 97.8775 26.5783 101.096 26.7538V32.3086C95.9253 31.992 90.7547 31.676 85.4758 31.5702V0H91.2609V26.2617ZM105.977 32.6953C107.821 32.8009 109.773 32.9064 111.654 33.1171V0H105.977V32.6953ZM137 0L129.66 17.1211L137 36C134.83 35.7188 132.661 35.332 130.491 34.9804L126.334 24.5744L122.104 34.1369C120.006 33.785 117.981 33.6795 115.884 33.3983L123.333 16.91L116.607 0H122.826L126.623 9.45705L130.672 0H137V0Z" fill="#D81F26"/>
</svg>
